<svg width="60" height="72" fill="none" xmlns="http://www.w3.org/2000/svg"><path d="M29.973 63.673C13.446 63.673 0 54.602 0 43.439c0-11.164 13.446-20.235 29.973-20.235s29.974 9.071 29.974 20.235c0 11.163-13.447 20.234-29.974 20.234Zm0-38.74C14.382 24.916 1.7 33.224 1.7 43.44c0 10.216 12.683 18.52 28.274 18.52 15.592 0 28.275-8.308 28.275-18.52 0-10.213-12.683-18.524-28.275-18.524v.019Z" fill="#EEEDE9"/><path d="M29.973 67.65C15.241 67.65 0 63.71 0 57.119c0-6.594 15.24-10.534 29.973-10.534 14.733 0 29.974 3.94 29.974 10.534 0 6.593-15.241 10.533-29.974 10.533Zm0-19.367c-16.912 0-28.274 4.582-28.274 8.835 0 4.253 11.362 8.845 28.274 8.845 16.913 0 28.275-4.581 28.275-8.834 0-4.253-11.362-8.846-28.275-8.846Z" fill="#EEEDE9"/><path d="M30.027 71.774c-14.89 0-29.977-2.47-29.977-7.185 0-2.2 3.096-3.986 9.2-5.314 5.56-1.21 12.939-1.875 20.777-1.875C44.916 57.4 60 59.87 60 64.59c0 2.195-3.096 3.982-9.2 5.31-5.56 1.21-12.935 1.875-20.773 1.875Zm0-12.675c-17.52 0-28.278 3.196-28.278 5.49s10.758 5.486 28.278 5.486S58.3 66.88 58.3 64.59c0-2.29-10.758-5.498-28.274-5.498v.008Z" fill="#EEEDE9"/><path d="M29.973 59.855A29.928 29.928 0 1 1 59.901 29.93a29.958 29.958 0 0 1-29.928 29.924Zm0-58.152a28.229 28.229 0 1 0 28.229 28.21 28.252 28.252 0 0 0-28.229-28.23v.02Z" fill="#EEEDE9"/></svg>